<svg width="266" height="24" viewBox="0 0 266 24" fill="none" xmlns="http://www.w3.org/2000/svg">
    <g filter="url(#bzw8ets4ga)">
        <path fill-rule="evenodd" clip-rule="evenodd" d="M10 2C4.477 2 0 6.477 0 12s4.477 10 10 10 10-4.477 10-10S15.523 2 10 2zM7.364 7.151c-.067-.111-.171-.14-.293-.13A.09.09 0 0 1 6.995 7l-.203.046c-.161.036-.323.073-.483.115a1.246 1.246 0 0 0-.678.482 3.502 3.502 0 0 0-.49.99c-.132.39-.176.785-.112 1.197.055.363.177.703.302 1.046.205.568.431 1.125.749 1.643.486.796 1.088 1.496 1.763 2.138a9.765 9.765 0 0 0 1.74 1.332c.698.411 1.455.683 2.223.92.398.124.813.158 1.228.065a3.517 3.517 0 0 0 1.271-.538 1.55 1.55 0 0 0 .374-.361c.231-.337.298-.729.32-1.128.008-.142-.04-.245-.16-.315l-.24-.146c-.14-.087-.282-.173-.425-.255-.14-.08-.282-.156-.424-.232a7.41 7.41 0 0 1-.84-.496.589.589 0 0 0-.095-.052l-.028-.013a.359.359 0 0 0-.424.047c-.064.053-.13.108-.185.17-.1.112-.198.224-.295.336-.129.146-.257.293-.388.439-.248.276-.372.307-.692.126a14.264 14.264 0 0 1-.997-.612c-.837-.566-1.499-1.301-2.017-2.165-.132-.22-.251-.444-.371-.669l-.023-.043c-.083-.156-.051-.304.071-.422.097-.092.197-.181.297-.27a16.234 16.234 0 0 0 .34-.308c.145-.13.29-.26.424-.398.127-.13.131-.292.045-.455l-.006-.01c-.04-.069-.08-.138-.123-.206l-.056-.08a1.38 1.38 0 0 1-.093-.146c-.07-.123-.136-.248-.204-.373-.091-.17-.183-.34-.279-.507a24.593 24.593 0 0 0-.411-.683l-.036-.058z" fill="#FF2480"/>
        <path d="M39.472 13.28h-3.024v3.104h-2.112V13.28h-3.024v-1.952h3.024V8.224h2.112v3.104h3.024v1.952zm4.75 1.44c.085.47.277.832.575 1.088.31.245.72.368 1.232.368.662 0 1.142-.272 1.44-.816.299-.555.448-1.483.448-2.784-.245.341-.592.608-1.04.8a3.503 3.503 0 0 1-1.424.288 4.092 4.092 0 0 1-1.856-.416 3.21 3.21 0 0 1-1.296-1.264c-.32-.565-.48-1.248-.48-2.048 0-1.184.352-2.123 1.056-2.816.704-.704 1.664-1.056 2.88-1.056 1.515 0 2.582.485 3.2 1.456.63.97.944 2.432.944 4.384 0 1.387-.122 2.523-.368 3.408-.234.885-.645 1.557-1.232 2.016-.576.459-1.365.688-2.368.688-.79 0-1.461-.15-2.016-.448-.554-.31-.981-.71-1.28-1.2a3.808 3.808 0 0 1-.496-1.648h2.08zm1.695-2.88c.555 0 .992-.17 1.312-.512.32-.341.48-.8.48-1.376 0-.63-.17-1.115-.512-1.456-.33-.352-.784-.528-1.36-.528-.576 0-1.034.181-1.376.544-.33.352-.496.821-.496 1.408 0 .565.16 1.03.48 1.392.33.352.822.528 1.472.528zm5.456-3.44V6.336h3.856V18h-2.304V8.4h-1.552zm11.833 3.424c-1.066-.555-1.6-1.413-1.6-2.576 0-.576.144-1.099.432-1.568.299-.48.742-.859 1.328-1.136.598-.288 1.323-.432 2.176-.432.854 0 1.574.144 2.16.432.598.277 1.04.656 1.328 1.136.299.47.448.992.448 1.568 0 .587-.144 1.104-.432 1.552a2.972 2.972 0 0 1-1.152 1.024c.587.256 1.046.63 1.376 1.12.33.49.496 1.072.496 1.744 0 .725-.186 1.36-.56 1.904-.362.533-.864.944-1.504 1.232-.64.288-1.36.432-2.16.432s-1.52-.144-2.16-.432a3.644 3.644 0 0 1-1.504-1.232c-.362-.544-.544-1.179-.544-1.904 0-.672.166-1.253.496-1.744a2.98 2.98 0 0 1 1.376-1.12zm4.096-2.256c0-.523-.16-.928-.48-1.216-.31-.288-.736-.432-1.28-.432-.533 0-.96.144-1.28.432-.31.288-.464.699-.464 1.232 0 .48.16.864.48 1.152.33.288.752.432 1.264.432s.934-.144 1.264-.432c.33-.299.496-.688.496-1.168zm-1.76 3.232c-.608 0-1.104.155-1.488.464-.373.31-.56.752-.56 1.328 0 .533.182.97.544 1.312.374.33.875.496 1.504.496.63 0 1.126-.17 1.488-.512.363-.341.544-.773.544-1.296 0-.565-.186-1.003-.56-1.312-.373-.32-.864-.48-1.472-.48zm13.834-4.528h-5.184v2.736c.224-.277.544-.501.96-.672a3.288 3.288 0 0 1 1.328-.272c.853 0 1.551.187 2.096.56.544.373.938.853 1.184 1.44.245.576.367 1.195.367 1.856 0 1.227-.352 2.213-1.055 2.96-.694.747-1.686 1.12-2.977 1.12-1.216 0-2.186-.304-2.912-.912-.725-.608-1.136-1.403-1.232-2.384h2.177c.096.427.309.768.64 1.024.34.256.773.384 1.296.384.629 0 1.104-.197 1.424-.592.32-.395.48-.917.48-1.568 0-.661-.166-1.163-.496-1.504-.32-.352-.795-.528-1.424-.528-.448 0-.822.112-1.12.336a1.833 1.833 0 0 0-.64.896h-2.144V6.304h7.231v1.968zm2.456 3.744c0-1.845.331-3.29.992-4.336.672-1.045 1.782-1.568 3.328-1.568 1.547 0 2.651.523 3.312 1.568.672 1.045 1.008 2.49 1.008 4.336 0 1.856-.336 3.312-1.008 4.368-.661 1.056-1.765 1.584-3.312 1.584-1.546 0-2.656-.528-3.328-1.584-.661-1.056-.992-2.512-.992-4.368zm6.432 0c0-.79-.053-1.45-.16-1.984-.096-.544-.298-.987-.608-1.328-.298-.341-.746-.512-1.344-.512-.597 0-1.05.17-1.36.512-.298.341-.501.784-.608 1.328-.096.533-.144 1.195-.144 1.984 0 .81.048 1.493.144 2.048.096.544.299.987.608 1.328.31.33.763.496 1.36.496.598 0 1.051-.165 1.36-.496.31-.341.512-.784.608-1.328.096-.555.144-1.237.144-2.048zm9.96-2.768c-.106-.448-.293-.784-.56-1.008-.256-.224-.63-.336-1.12-.336-.736 0-1.28.299-1.632.896-.341.587-.517 1.547-.528 2.88.256-.427.63-.757 1.12-.992a3.528 3.528 0 0 1 1.6-.368c.694 0 1.307.15 1.84.448.534.299.95.736 1.248 1.312.299.565.448 1.248.448 2.048 0 .757-.155 1.435-.464 2.032a3.237 3.237 0 0 1-1.328 1.376c-.587.33-1.285.496-2.096.496-1.11 0-1.984-.245-2.624-.736-.63-.49-1.072-1.173-1.328-2.048-.245-.885-.368-1.973-.368-3.264 0-1.952.336-3.424 1.008-4.416.672-1.003 1.734-1.504 3.184-1.504 1.12 0 1.99.304 2.608.912.619.608.976 1.365 1.072 2.272h-2.08zm-1.632 2.912c-.565 0-1.04.165-1.424.496-.384.33-.576.81-.576 1.44 0 .63.176 1.125.528 1.488.363.363.87.544 1.52.544.576 0 1.03-.176 1.36-.528.341-.352.512-.827.512-1.424 0-.619-.165-1.11-.496-1.472-.32-.363-.794-.544-1.424-.544zm5.819-.144c0-1.845.33-3.29.992-4.336.672-1.045 1.781-1.568 3.328-1.568 1.546 0 2.65.523 3.312 1.568.672 1.045 1.008 2.49 1.008 4.336 0 1.856-.336 3.312-1.008 4.368-.662 1.056-1.766 1.584-3.312 1.584-1.547 0-2.656-.528-3.328-1.584-.662-1.056-.992-2.512-.992-4.368zm6.432 0c0-.79-.054-1.45-.16-1.984-.096-.544-.299-.987-.608-1.328-.299-.341-.747-.512-1.344-.512-.598 0-1.051.17-1.36.512-.299.341-.502.784-.608 1.328-.096.533-.144 1.195-.144 1.984 0 .81.048 1.493.144 2.048.096.544.298.987.608 1.328.309.33.762.496 1.36.496.597 0 1.05-.165 1.36-.496.309-.341.512-.784.608-1.328.096-.555.144-1.237.144-2.048zm11.335-3.984L115.922 18h-2.272l4.288-9.712h-5.472v-1.92h7.712v1.664zm1.342 3.984c0-1.845.331-3.29.992-4.336.672-1.045 1.781-1.568 3.328-1.568s2.651.523 3.312 1.568c.672 1.045 1.008 2.49 1.008 4.336 0 1.856-.336 3.312-1.008 4.368-.661 1.056-1.765 1.584-3.312 1.584s-2.656-.528-3.328-1.584c-.661-1.056-.992-2.512-.992-4.368zm6.432 0c0-.79-.053-1.45-.16-1.984-.096-.544-.299-.987-.608-1.328-.299-.341-.747-.512-1.344-.512-.597 0-1.051.17-1.36.512-.299.341-.501.784-.608 1.328-.096.533-.144 1.195-.144 1.984 0 .81.048 1.493.144 2.048.096.544.299.987.608 1.328.309.33.763.496 1.36.496.597 0 1.051-.165 1.36-.496.309-.341.512-.784.608-1.328.096-.555.144-1.237.144-2.048zm3.912 0c0-1.845.33-3.29.992-4.336.672-1.045 1.781-1.568 3.328-1.568 1.546 0 2.65.523 3.312 1.568.672 1.045 1.008 2.49 1.008 4.336 0 1.856-.336 3.312-1.008 4.368-.662 1.056-1.766 1.584-3.312 1.584-1.547 0-2.656-.528-3.328-1.584-.662-1.056-.992-2.512-.992-4.368zm6.432 0c0-.79-.054-1.45-.16-1.984-.096-.544-.299-.987-.608-1.328-.299-.341-.747-.512-1.344-.512-.598 0-1.051.17-1.36.512-.299.341-.502.784-.608 1.328-.096.533-.144 1.195-.144 1.984 0 .81.048 1.493.144 2.048.096.544.298.987.608 1.328.309.33.762.496 1.36.496.597 0 1.05-.165 1.36-.496.309-.341.512-.784.608-1.328.096-.555.144-1.237.144-2.048zm6.503 2.704c.086.47.278.832.576 1.088.31.245.72.368 1.232.368.662 0 1.142-.272 1.44-.816.299-.555.448-1.483.448-2.784-.245.341-.592.608-1.04.8a3.502 3.502 0 0 1-1.424.288 4.095 4.095 0 0 1-1.856-.416 3.21 3.21 0 0 1-1.296-1.264c-.32-.565-.48-1.248-.48-2.048 0-1.184.352-2.123 1.056-2.816.704-.704 1.664-1.056 2.88-1.056 1.515 0 2.582.485 3.2 1.456.63.97.944 2.432.944 4.384 0 1.387-.122 2.523-.368 3.408-.234.885-.645 1.557-1.232 2.016-.576.459-1.365.688-2.368.688-.789 0-1.461-.15-2.016-.448-.554-.31-.981-.71-1.28-1.2a3.813 3.813 0 0 1-.496-1.648h2.08zm1.696-2.88c.555 0 .992-.17 1.312-.512.32-.341.48-.8.48-1.376 0-.63-.17-1.115-.512-1.456-.33-.352-.784-.528-1.36-.528-.576 0-1.034.181-1.376.544-.33.352-.496.821-.496 1.408 0 .565.16 1.03.48 1.392.331.352.822.528 1.472.528zm5.728.176c0-1.845.331-3.29.992-4.336.672-1.045 1.781-1.568 3.328-1.568s2.651.523 3.312 1.568c.672 1.045 1.008 2.49 1.008 4.336 0 1.856-.336 3.312-1.008 4.368-.661 1.056-1.765 1.584-3.312 1.584s-2.656-.528-3.328-1.584c-.661-1.056-.992-2.512-.992-4.368zm6.432 0c0-.79-.053-1.45-.16-1.984-.096-.544-.299-.987-.608-1.328-.299-.341-.747-.512-1.344-.512-.597 0-1.051.17-1.36.512-.299.341-.501.784-.608 1.328-.096.533-.144 1.195-.144 1.984 0 .81.048 1.493.144 2.048.096.544.299.987.608 1.328.309.33.763.496 1.36.496.597 0 1.051-.165 1.36-.496.309-.341.512-.784.608-1.328.096-.555.144-1.237.144-2.048zm6.616 3.632-1.872 4.496h-1.44l1.04-4.496h2.272zm7.123-3.824c-1.067-.555-1.6-1.413-1.6-2.576 0-.576.144-1.099.432-1.568.298-.48.741-.859 1.328-1.136.597-.288 1.322-.432 2.176-.432.853 0 1.573.144 2.16.432.597.277 1.04.656 1.328 1.136.298.47.448.992.448 1.568 0 .587-.144 1.104-.432 1.552a2.972 2.972 0 0 1-1.152 1.024c.586.256 1.045.63 1.376 1.12.33.49.496 1.072.496 1.744 0 .725-.187 1.36-.56 1.904-.363.533-.864.944-1.504 1.232-.64.288-1.36.432-2.16.432s-1.52-.144-2.16-.432a3.638 3.638 0 0 1-1.504-1.232c-.363-.544-.544-1.179-.544-1.904 0-.672.165-1.253.496-1.744.33-.501.789-.875 1.376-1.12zm4.096-2.256c0-.523-.16-.928-.48-1.216-.31-.288-.736-.432-1.28-.432-.534 0-.96.144-1.28.432-.31.288-.464.699-.464 1.232 0 .48.16.864.48 1.152.33.288.752.432 1.264.432s.933-.144 1.264-.432c.33-.299.496-.688.496-1.168zm-1.76 3.232c-.608 0-1.104.155-1.488.464-.374.31-.56.752-.56 1.328 0 .533.181.97.544 1.312.373.33.874.496 1.504.496.629 0 1.125-.17 1.488-.512.362-.341.544-.773.544-1.296 0-.565-.187-1.003-.56-1.312-.374-.32-.864-.48-1.472-.48zm5.993-.784c0-1.845.331-3.29.992-4.336.672-1.045 1.781-1.568 3.328-1.568s2.651.523 3.312 1.568c.672 1.045 1.008 2.49 1.008 4.336 0 1.856-.336 3.312-1.008 4.368-.661 1.056-1.765 1.584-3.312 1.584s-2.656-.528-3.328-1.584c-.661-1.056-.992-2.512-.992-4.368zm6.432 0c0-.79-.053-1.45-.16-1.984-.096-.544-.299-.987-.608-1.328-.299-.341-.747-.512-1.344-.512-.597 0-1.051.17-1.36.512-.299.341-.501.784-.608 1.328-.096.533-.144 1.195-.144 1.984 0 .81.048 1.493.144 2.048.096.544.299.987.608 1.328.309.33.763.496 1.36.496.597 0 1.051-.165 1.36-.496.309-.341.512-.784.608-1.328.096-.555.144-1.237.144-2.048zm11.336-3.984L194.235 18h-2.272l4.288-9.712h-5.472v-1.92h7.712v1.664zm7.389 1.216c-.106-.448-.293-.784-.56-1.008-.256-.224-.629-.336-1.12-.336-.736 0-1.28.299-1.632.896-.341.587-.517 1.547-.528 2.88.256-.427.63-.757 1.12-.992a3.529 3.529 0 0 1 1.6-.368c.694 0 1.307.15 1.84.448.534.299.95.736 1.248 1.312.299.565.448 1.248.448 2.048 0 .757-.154 1.435-.464 2.032a3.232 3.232 0 0 1-1.328 1.376c-.586.33-1.285.496-2.096.496-1.109 0-1.984-.245-2.624-.736-.629-.49-1.072-1.173-1.328-2.048-.245-.885-.368-1.973-.368-3.264 0-1.952.336-3.424 1.008-4.416.672-1.003 1.734-1.504 3.184-1.504 1.12 0 1.99.304 2.608.912.619.608.976 1.365 1.072 2.272h-2.08zm-1.632 2.912c-.565 0-1.04.165-1.424.496-.384.33-.576.81-.576 1.44 0 .63.176 1.125.528 1.488.363.363.87.544 1.52.544.576 0 1.03-.176 1.36-.528.342-.352.512-.827.512-1.424 0-.619-.165-1.11-.496-1.472-.32-.363-.794-.544-1.424-.544zm13.243-4.128L213.235 18h-2.272l4.288-9.712h-5.472v-1.92h7.712v1.664zm1.373 1.376c.054-1.067.427-1.888 1.12-2.464.704-.587 1.627-.88 2.768-.88.779 0 1.446.139 2 .416.555.267.971.635 1.248 1.104.288.459.432.981.432 1.568 0 .672-.176 1.243-.528 1.712-.341.459-.752.768-1.232.928v.064c.619.192 1.099.533 1.44 1.024.352.49.528 1.12.528 1.888 0 .64-.149 1.21-.448 1.712-.288.501-.72.896-1.296 1.184-.565.277-1.248.416-2.048.416-1.205 0-2.186-.304-2.944-.912-.757-.608-1.157-1.504-1.2-2.688h2.176c.022.523.198.944.528 1.264.342.31.806.464 1.392.464.544 0 .96-.15 1.248-.448.299-.31.448-.704.448-1.184 0-.64-.202-1.099-.608-1.376-.405-.277-1.034-.416-1.888-.416h-.464v-1.84H222c1.515 0 2.272-.507 2.272-1.52 0-.459-.138-.816-.416-1.072-.266-.256-.656-.384-1.168-.384-.501 0-.89.139-1.168.416-.266.267-.421.608-.464 1.024h-2.192zm15.595-.16c-.107-.448-.294-.784-.56-1.008-.256-.224-.63-.336-1.12-.336-.736 0-1.28.299-1.632.896-.342.587-.518 1.547-.528 2.88a2.546 2.546 0 0 1 1.12-.992 3.526 3.526 0 0 1 1.6-.368c.693 0 1.306.15 1.84.448.533.299.949.736 1.248 1.312.298.565.448 1.248.448 2.048 0 .757-.155 1.435-.464 2.032a3.244 3.244 0 0 1-1.328 1.376c-.587.33-1.286.496-2.096.496-1.11 0-1.984-.245-2.624-.736-.63-.49-1.072-1.173-1.328-2.048-.246-.885-.368-1.973-.368-3.264 0-1.952.336-3.424 1.007-4.416.673-1.003 1.734-1.504 3.185-1.504 1.12 0 1.989.304 2.608.912.618.608.976 1.365 1.072 2.272h-2.08zm-1.632 2.912c-.566 0-1.04.165-1.424.496-.384.33-.576.81-.576 1.44 0 .63.176 1.125.528 1.488.362.363.869.544 1.52.544.576 0 1.029-.176 1.36-.528.341-.352.512-.827.512-1.424 0-.619-.166-1.11-.496-1.472-.32-.363-.795-.544-1.424-.544zm13.242-4.128L241.813 18h-2.272l4.288-9.712h-5.472v-1.92h7.712v1.664zm2.046 7.44a61.407 61.407 0 0 0 2.447-2.128 10.12 10.12 0 0 0 1.521-1.792c.405-.619.608-1.227.608-1.824 0-.544-.128-.97-.384-1.28-.256-.31-.651-.464-1.184-.464-.534 0-.944.181-1.232.544-.288.352-.438.837-.448 1.456h-2.176c.042-1.28.421-2.25 1.136-2.912.725-.661 1.642-.992 2.752-.992 1.216 0 2.149.325 2.8.976.65.64.976 1.488.976 2.544 0 .832-.224 1.627-.672 2.384a9.63 9.63 0 0 1-1.536 1.984 50.64 50.64 0 0 1-2.256 2.016h4.72v1.856h-7.904v-1.664l.832-.704zm8.515-6.064c.053-1.067.427-1.888 1.12-2.464.704-.587 1.627-.88 2.768-.88.779 0 1.445.139 2 .416.555.267.971.635 1.248 1.104.288.459.432.981.432 1.568 0 .672-.176 1.243-.528 1.712-.341.459-.752.768-1.232.928v.064c.619.192 1.099.533 1.44 1.024.352.49.528 1.12.528 1.888 0 .64-.149 1.21-.448 1.712-.288.501-.72.896-1.296 1.184-.565.277-1.248.416-2.048.416-1.205 0-2.187-.304-2.944-.912-.757-.608-1.157-1.504-1.2-2.688h2.176c.021.523.197.944.528 1.264.341.31.805.464 1.392.464.544 0 .96-.15 1.248-.448.299-.31.448-.704.448-1.184 0-.64-.203-1.099-.608-1.376-.405-.277-1.035-.416-1.888-.416h-.464v-1.84h.464c1.515 0 2.272-.507 2.272-1.52 0-.459-.139-.816-.416-1.072-.267-.256-.656-.384-1.168-.384-.501 0-.891.139-1.168.416-.267.267-.421.608-.464 1.024h-2.192z" fill="#fff"/>
    </g>
    <defs>
        <filter id="bzw8ets4ga" x="-10" y="-8" width="284.406" height="40" filterUnits="userSpaceOnUse" color-interpolation-filters="sRGB">
            <feFlood flood-opacity="0" result="BackgroundImageFix"/>
            <feGaussianBlur in="BackgroundImage" stdDeviation="5"/>
            <feComposite in2="SourceAlpha" operator="in" result="effect1_backgroundBlur_391_121"/>
            <feBlend in="SourceGraphic" in2="effect1_backgroundBlur_391_121" result="shape"/>
        </filter>
    </defs>
</svg>
