<svg width="213" height="24" viewBox="0 0 213 24" fill="none" xmlns="http://www.w3.org/2000/svg">
    <g filter="url(#3p88c4eg9a)">
        <path d="M0 9.058C0 7.504.52 5.993 1.474 4.76a7.129 7.129 0 0 1 3.81-2.52 7.187 7.187 0 0 1 4.57.298 7.105 7.105 0 0 1 3.443 2.995 7.005 7.005 0 0 1-1.137 8.521 7.18 7.18 0 0 1-8.602 1.116l-2.776.918a.6.6 0 0 1-.599-.133.587.587 0 0 1-.16-.587l.845-2.931A6.98 6.98 0 0 1 0 9.057zm5.344-1.765a.597.597 0 0 0-.42.172.586.586 0 0 0 .42 1.005h3.562a.597.597 0 0 0 .42-.173.586.586 0 0 0-.42-1.004H5.344zm2.375 2.353H5.344a.597.597 0 0 0-.42.172.586.586 0 0 0 .42 1.005h2.375a.596.596 0 0 0 .42-.173.585.585 0 0 0 0-.832.597.597 0 0 0-.42-.172z" fill="#FF2480"/>
        <path d="m12.203 18.408-2.852-1.412a8.388 8.388 0 0 0 1.5-.574l1.618.802 5.344-2.647v-.813a1.17 1.17 0 0 0-.348-.832 1.193 1.193 0 0 0-.84-.344h-1.988c.182-.377.334-.771.456-1.177h1.532c.63 0 1.234.248 1.68.69.445.44.695 1.04.695 1.663v5.883c0 .624-.25 1.223-.695 1.664-.446.441-1.05.689-1.68.689H8.313c-.63 0-1.234-.248-1.68-.69a2.342 2.342 0 0 1-.695-1.663v-2.435a8.59 8.59 0 0 0 1.187.082v2.353c0 .312.126.611.348.832.223.22.525.345.84.345h8.312c.315 0 .617-.125.84-.345.223-.22.348-.52.348-.832v-3.754l-5.078 2.515a.598.598 0 0 1-.532 0z" fill="#FF2480"/>
        <path d="M29.528 13.568c0-.917.187-1.717.56-2.4a3.936 3.936 0 0 1 1.552-1.6c.661-.384 1.419-.576 2.272-.576 1.099 0 2.005.277 2.72.832.725.544 1.21 1.312 1.456 2.304h-2.416a1.709 1.709 0 0 0-.656-.896c-.299-.224-.672-.336-1.12-.336-.64 0-1.147.235-1.52.704-.373.459-.56 1.115-.56 1.968 0 .843.187 1.499.56 1.968.373.459.88.688 1.52.688.907 0 1.499-.405 1.776-1.216h2.416c-.245.96-.73 1.723-1.456 2.288-.725.565-1.632.848-2.72.848-.853 0-1.61-.187-2.272-.56a4.072 4.072 0 0 1-1.552-1.6c-.373-.693-.56-1.499-.56-2.416zM41.969 6.16V18h-2.24V6.16h2.24zm1.637 7.376c0-.896.176-1.69.528-2.384.363-.693.848-1.227 1.456-1.6a3.918 3.918 0 0 1 2.064-.56c.661 0 1.237.133 1.728.4.502.267.901.603 1.2 1.008V9.136h2.256V18h-2.256v-1.296c-.288.416-.688.763-1.2 1.04-.501.267-1.082.4-1.744.4-.746 0-1.43-.192-2.048-.576-.608-.384-1.093-.923-1.456-1.616-.352-.704-.528-1.51-.528-2.416zm6.976.032c0-.544-.107-1.008-.32-1.392a2.189 2.189 0 0 0-.864-.896 2.265 2.265 0 0 0-1.168-.32c-.416 0-.8.101-1.152.304-.352.203-.64.501-.864.896-.213.384-.32.843-.32 1.376 0 .533.107 1.003.32 1.408.224.395.512.699.864.912.363.213.747.32 1.152.32.416 0 .806-.101 1.168-.304.363-.213.65-.512.864-.896.213-.395.32-.864.32-1.408zm7.836 4.576c-.725 0-1.376-.128-1.952-.384-.576-.267-1.035-.624-1.376-1.072a2.728 2.728 0 0 1-.544-1.488h2.256c.042.341.208.624.496.848.298.224.666.336 1.104.336.426 0 .757-.085.992-.256.245-.17.368-.39.368-.656 0-.288-.15-.501-.448-.64-.288-.15-.752-.31-1.392-.48a12.25 12.25 0 0 1-1.632-.496 2.9 2.9 0 0 1-1.088-.784c-.299-.352-.448-.827-.448-1.424 0-.49.139-.939.416-1.344.288-.405.693-.725 1.216-.96.533-.235 1.157-.352 1.872-.352 1.056 0 1.898.267 2.528.8.63.523.976 1.232 1.04 2.128h-2.144a1.125 1.125 0 0 0-.448-.832c-.256-.213-.603-.32-1.04-.32-.406 0-.72.075-.944.224a.719.719 0 0 0-.32.624c0 .299.15.528.448.688.298.15.763.304 1.392.464.64.16 1.168.325 1.584.496.416.17.773.437 1.072.8.31.352.47.821.48 1.408 0 .512-.144.97-.432 1.376-.277.405-.683.725-1.216.96-.523.224-1.136.336-1.84.336zm8.719 0c-.726 0-1.376-.128-1.952-.384-.576-.267-1.035-.624-1.376-1.072a2.728 2.728 0 0 1-.544-1.488h2.256c.042.341.208.624.496.848.298.224.666.336 1.104.336.426 0 .757-.085.992-.256.245-.17.368-.39.368-.656 0-.288-.15-.501-.448-.64-.288-.15-.752-.31-1.392-.48a12.259 12.259 0 0 1-1.632-.496 2.902 2.902 0 0 1-1.088-.784c-.299-.352-.448-.827-.448-1.424 0-.49.138-.939.416-1.344.288-.405.693-.725 1.216-.96.533-.235 1.157-.352 1.872-.352 1.056 0 1.898.267 2.528.8.629.523.976 1.232 1.04 2.128H68.4a1.125 1.125 0 0 0-.448-.832c-.256-.213-.603-.32-1.04-.32-.406 0-.72.075-.944.224a.72.72 0 0 0-.32.624c0 .299.149.528.448.688.298.15.762.304 1.392.464.64.16 1.168.325 1.584.496.416.17.773.437 1.072.8.309.352.469.821.48 1.408 0 .512-.144.97-.432 1.376-.278.405-.683.725-1.216.96-.523.224-1.136.336-1.84.336zm13.566-4.768c0 .32-.021.608-.064.864h-6.48c.054.64.278 1.141.672 1.504.395.363.88.544 1.456.544.832 0 1.424-.357 1.776-1.072h2.416a4.079 4.079 0 0 1-1.472 2.112c-.725.544-1.616.816-2.672.816-.853 0-1.621-.187-2.304-.56a4.122 4.122 0 0 1-1.584-1.616c-.373-.693-.56-1.493-.56-2.4 0-.917.187-1.723.56-2.416a3.907 3.907 0 0 1 1.568-1.6c.672-.373 1.446-.56 2.32-.56.843 0 1.595.181 2.256.544.672.363 1.19.88 1.552 1.552.374.661.56 1.424.56 2.288zm-2.32-.64c-.01-.576-.218-1.035-.624-1.376-.405-.352-.901-.528-1.488-.528-.554 0-1.024.17-1.408.512-.373.33-.602.795-.688 1.392h4.208zm7.347 5.408c-.725 0-1.376-.128-1.952-.384-.576-.267-1.034-.624-1.376-1.072a2.728 2.728 0 0 1-.544-1.488h2.256c.043.341.208.624.496.848.299.224.667.336 1.104.336.427 0 .758-.085.992-.256.246-.17.368-.39.368-.656 0-.288-.149-.501-.448-.64-.288-.15-.752-.31-1.392-.48a12.25 12.25 0 0 1-1.632-.496 2.9 2.9 0 0 1-1.088-.784c-.298-.352-.448-.827-.448-1.424 0-.49.139-.939.416-1.344.288-.405.694-.725 1.216-.96.534-.235 1.158-.352 1.872-.352 1.056 0 1.899.267 2.528.8.63.523.976 1.232 1.04 2.128h-2.144a1.125 1.125 0 0 0-.448-.832c-.256-.213-.602-.32-1.04-.32-.405 0-.72.075-.944.224a.719.719 0 0 0-.32.624c0 .299.15.528.448.688.299.15.763.304 1.392.464.64.16 1.168.325 1.584.496.416.17.774.437 1.072.8.31.352.47.821.48 1.408 0 .512-.144.97-.432 1.376-.277.405-.682.725-1.216.96-.522.224-1.136.336-1.84.336zm13.855-10.64c1.237 0 2.309.23 3.216.688.907.459 1.6 1.104 2.08 1.936.491.832.736 1.792.736 2.88 0 .875-.155 1.701-.464 2.48-.299.779-.736 1.408-1.312 1.888-.576.48-1.259.72-2.048.72-.555 0-1.003-.112-1.344-.336a1.577 1.577 0 0 1-.656-.992c-.31.416-.71.747-1.2.992a3.552 3.552 0 0 1-1.552.352c-.81 0-1.445-.24-1.904-.72-.459-.49-.688-1.157-.688-2 0-.8.166-1.547.496-2.24.33-.693.79-1.248 1.376-1.664a3.29 3.29 0 0 1 1.984-.64c.917 0 1.547.32 1.888.96l.144-.832h1.872l-.752 4.32a3.61 3.61 0 0 0-.048.56c0 .256.053.448.16.576.107.128.288.192.544.192.384 0 .704-.181.96-.544.267-.363.464-.816.592-1.36a6.569 6.569 0 0 0 .208-1.632c0-1.29-.395-2.288-1.184-2.992-.789-.715-1.904-1.072-3.344-1.072-1.227 0-2.336.299-3.328.896a6.28 6.28 0 0 0-2.336 2.416c-.555 1.013-.832 2.144-.832 3.392 0 1.323.39 2.341 1.168 3.056.79.715 1.904 1.072 3.344 1.072 1.035 0 1.947-.187 2.736-.56l.32 1.472c-1.013.427-2.139.64-3.376.64-1.194 0-2.24-.23-3.136-.688a4.899 4.899 0 0 1-2.08-1.92c-.49-.832-.736-1.797-.736-2.896 0-1.568.363-2.992 1.088-4.272a8.035 8.035 0 0 1 3.04-3.024c1.302-.736 2.758-1.104 4.368-1.104zm-1.84 8.944c.384 0 .736-.112 1.056-.336.32-.224.57-.523.752-.896.192-.373.288-.773.288-1.2 0-.448-.122-.81-.368-1.088-.245-.277-.587-.416-1.024-.416a1.59 1.59 0 0 0-1.04.368 2.388 2.388 0 0 0-.704.928c-.16.384-.24.79-.24 1.216 0 .437.107.784.32 1.04.214.256.534.384.96.384zm12.733-5.472v4.288c0 .299.069.517.208.656.149.128.394.192.736.192h1.04V18h-1.408c-1.888 0-2.832-.917-2.832-2.752v-4.272h-1.056v-1.84h1.056V6.944h2.256v2.192h1.984v1.84h-1.984zm8.587-1.968c.672 0 1.269.15 1.792.448.522.288.928.72 1.216 1.296.298.565.448 1.248.448 2.048V18h-2.24v-4.896c0-.704-.176-1.243-.528-1.616-.352-.384-.832-.576-1.44-.576-.619 0-1.11.192-1.472.576-.352.373-.528.912-.528 1.616V18h-2.24V6.16h2.24v4.08a2.857 2.857 0 0 1 1.152-.896 3.736 3.736 0 0 1 1.6-.336zm13.826 4.368c0 .32-.021.608-.064.864h-6.48c.053.64.277 1.141.672 1.504s.88.544 1.456.544c.832 0 1.424-.357 1.776-1.072h2.416a4.08 4.08 0 0 1-1.472 2.112c-.725.544-1.616.816-2.672.816-.853 0-1.621-.187-2.304-.56a4.122 4.122 0 0 1-1.584-1.616c-.373-.693-.56-1.493-.56-2.4 0-.917.187-1.723.56-2.416a3.906 3.906 0 0 1 1.568-1.6c.672-.373 1.445-.56 2.32-.56.843 0 1.595.181 2.256.544.672.363 1.189.88 1.552 1.552.373.661.56 1.424.56 2.288zm-2.32-.64c-.011-.576-.219-1.035-.624-1.376-.405-.352-.901-.528-1.488-.528-.555 0-1.024.17-1.408.512-.373.33-.603.795-.688 1.392h4.208zm8.947-3.728c.672 0 1.269.15 1.792.448.523.288.928.72 1.216 1.296.299.565.448 1.248.448 2.048V18h-2.24v-4.896c0-.704-.176-1.243-.528-1.616-.352-.384-.832-.576-1.44-.576-.619 0-1.109.192-1.472.576-.352.373-.528.912-.528 1.616V18h-2.24V6.16h2.24v4.08a2.857 2.857 0 0 1 1.152-.896 3.736 3.736 0 0 1 1.6-.336zm13.954.128V18h-2.256v-1.12a3.015 3.015 0 0 1-1.136.912c-.459.213-.96.32-1.504.32-.693 0-1.307-.144-1.84-.432a3.217 3.217 0 0 1-1.264-1.296c-.299-.576-.448-1.259-.448-2.048v-5.2h2.24v4.88c0 .704.176 1.248.528 1.632.352.373.832.56 1.44.56.619 0 1.104-.187 1.456-.56.352-.384.528-.928.528-1.632v-4.88h2.256zm4.818 1.84v4.288c0 .299.069.517.208.656.149.128.395.192.736.192h1.04V18h-1.408c-1.888 0-2.832-.917-2.832-2.752v-4.272h-1.056v-1.84h1.056V6.944h2.256v2.192h1.984v1.84h-1.984zm11.963-1.84V18h-2.256v-1.12a3.007 3.007 0 0 1-1.136.912 3.52 3.52 0 0 1-1.504.32c-.693 0-1.306-.144-1.84-.432a3.223 3.223 0 0 1-1.264-1.296c-.298-.576-.448-1.259-.448-2.048v-5.2h2.24v4.88c0 .704.176 1.248.528 1.632.352.373.832.56 1.44.56.619 0 1.104-.187 1.456-.56.352-.384.528-.928.528-1.632v-4.88h2.256zm3.202 8.976c-.405 0-.741-.123-1.008-.368a1.283 1.283 0 0 1-.384-.944c0-.373.128-.683.384-.928.267-.256.603-.384 1.008-.384.395 0 .72.128.976.384.256.245.384.555.384.928s-.128.688-.384.944c-.256.245-.581.368-.976.368zm2.589-4.544c0-.917.186-1.717.56-2.4a3.93 3.93 0 0 1 1.552-1.6c.661-.384 1.418-.576 2.272-.576 1.098 0 2.005.277 2.72.832.725.544 1.21 1.312 1.456 2.304h-2.416a1.71 1.71 0 0 0-.656-.896c-.299-.224-.672-.336-1.12-.336-.64 0-1.147.235-1.52.704-.374.459-.56 1.115-.56 1.968 0 .843.186 1.499.56 1.968.373.459.88.688 1.52.688.906 0 1.498-.405 1.776-1.216h2.416c-.246.96-.731 1.723-1.456 2.288-.726.565-1.632.848-2.72.848-.854 0-1.611-.187-2.272-.56a4.065 4.065 0 0 1-1.552-1.6c-.374-.693-.56-1.499-.56-2.416zm14.137 4.576c-.854 0-1.622-.187-2.304-.56a4.194 4.194 0 0 1-1.616-1.616c-.384-.693-.576-1.493-.576-2.4 0-.907.197-1.707.592-2.4a4.162 4.162 0 0 1 1.648-1.6c.693-.384 1.466-.576 2.32-.576.853 0 1.626.192 2.32.576a4.065 4.065 0 0 1 1.632 1.6c.405.693.608 1.493.608 2.4 0 .907-.208 1.707-.624 2.4a4.256 4.256 0 0 1-1.664 1.616c-.694.373-1.472.56-2.336.56zm0-1.952c.405 0 .784-.096 1.136-.288.362-.203.65-.501.864-.896.213-.395.32-.875.32-1.44 0-.843-.224-1.488-.672-1.936a2.146 2.146 0 0 0-1.616-.688c-.64 0-1.179.23-1.616.688-.427.448-.64 1.093-.64 1.936s.208 1.493.624 1.952c.426.448.96.672 1.6.672zm17.275-7.184c1.088 0 1.962.336 2.624 1.008.672.661 1.008 1.59 1.008 2.784V18h-2.24v-4.896c0-.693-.176-1.221-.528-1.584-.352-.373-.832-.56-1.44-.56s-1.094.187-1.456.56c-.352.363-.528.89-.528 1.584V18h-2.24v-4.896c0-.693-.176-1.221-.528-1.584-.352-.373-.832-.56-1.44-.56-.619 0-1.11.187-1.472.56-.352.363-.528.89-.528 1.584V18h-2.24V9.136h2.24v1.072a2.997 2.997 0 0 1 1.104-.88 3.52 3.52 0 0 1 1.504-.32c.693 0 1.312.15 1.856.448.544.288.965.704 1.264 1.248a3.223 3.223 0 0 1 1.248-1.232 3.618 3.618 0 0 1 1.792-.464z" fill="#fff"/>
    </g>
    <defs>
        <filter id="3p88c4eg9a" x="-10" y="-8" width="231.088" height="40" filterUnits="userSpaceOnUse" color-interpolation-filters="sRGB">
            <feFlood flood-opacity="0" result="BackgroundImageFix"/>
            <feGaussianBlur in="BackgroundImage" stdDeviation="5"/>
            <feComposite in2="SourceAlpha" operator="in" result="effect1_backgroundBlur_391_124"/>
            <feBlend in="SourceGraphic" in2="effect1_backgroundBlur_391_124" result="shape"/>
        </filter>
    </defs>
</svg>
